<mxfile host="65bd71144e">
    <diagram id="6yQX8hcwyvJfj4e7RtTN" name="Page-1">
        <mxGraphModel dx="796" dy="753" grid="1" gridSize="10" guides="1" tooltips="1" connect="1" arrows="1" fold="1" page="1" pageScale="1" pageWidth="850" pageHeight="1100" math="0" shadow="0">
            <root>
                <mxCell id="0"/>
                <mxCell id="1" parent="0"/>
                <mxCell id="2" value="HOME" style="whiteSpace=wrap;html=1;aspect=fixed;" vertex="1" parent="1">
                    <mxGeometry x="40" y="200" width="200" height="200" as="geometry"/>
                </mxCell>
                <mxCell id="3" value="HEADER" style="rounded=0;whiteSpace=wrap;html=1;" vertex="1" parent="1">
                    <mxGeometry x="60" y="210" width="160" height="40" as="geometry"/>
                </mxCell>
                <mxCell id="4" value="FOOTER" style="rounded=0;whiteSpace=wrap;html=1;" vertex="1" parent="1">
                    <mxGeometry x="60" y="340" width="160" height="40" as="geometry"/>
                </mxCell>
                <mxCell id="5" value="/FEED" style="whiteSpace=wrap;html=1;aspect=fixed;" vertex="1" parent="1">
                    <mxGeometry x="280" y="240" width="80" height="80" as="geometry"/>
                </mxCell>
                <mxCell id="6" value="/LOGOUT" style="whiteSpace=wrap;html=1;aspect=fixed;" vertex="1" parent="1">
                    <mxGeometry x="760" y="240" width="80" height="80" as="geometry"/>
                </mxCell>
                <mxCell id="7" value="/PROFILE" style="whiteSpace=wrap;html=1;aspect=fixed;" vertex="1" parent="1">
                    <mxGeometry x="400" y="240" width="80" height="80" as="geometry"/>
                </mxCell>
                <mxCell id="8" value="/UPLOAD" style="whiteSpace=wrap;html=1;aspect=fixed;" vertex="1" parent="1">
                    <mxGeometry x="520" y="240" width="80" height="80" as="geometry"/>
                </mxCell>
                <mxCell id="9" value="/SETTING" style="whiteSpace=wrap;html=1;aspect=fixed;" vertex="1" parent="1">
                    <mxGeometry x="640" y="240" width="80" height="80" as="geometry"/>
                </mxCell>
            </root>
        </mxGraphModel>
    </diagram>
</mxfile>